
<svg version="1.0" xmlns="http://www.w3.org/2000/svg"
 width="502.000000pt" height="167.000000pt" viewBox="0 0 502.000000 167.000000"
 preserveAspectRatio="xMidYMid meet">

<g transform="translate(0.000000,167.000000) scale(0.100000,-0.100000)"
fill="#000000" stroke="none">
<path d="M0 835 l0 -835 2510 0 2510 0 0 835 0 835 -2510 0 -2510 0 0 -835z
m1008 664 c302 -76 522 -363 522 -681 0 -333 -224 -619 -545 -694 -92 -21
-296 -15 -370 11 -128 45 -198 88 -291 180 -77 77 -97 104 -136 185 -61 126
-73 180 -72 325 1 138 23 223 89 342 45 81 174 212 257 261 159 94 354 119
546 71z m1437 -449 c43 -26 50 -47 23 -61 -17 -9 -28 -8 -56 7 -30 16 -36 17
-60 3 -61 -34 -50 -121 17 -127 20 -2 40 3 51 13 14 13 22 14 44 4 33 -15 33
-22 -4 -52 -38 -33 -64 -40 -106 -33 -75 15 -125 94 -104 166 25 87 120 126
195 80z m992 -24 c28 -30 33 -43 33 -84 0 -124 -135 -186 -219 -101 -59 58
-49 161 19 207 29 19 44 23 84 19 41 -4 55 -11 83 -41z m560 22 c38 -27 58
-68 57 -120 -3 -93 -103 -155 -184 -113 -67 35 -92 104 -64 174 31 78 122 106
191 59z m346 -6 c20 -21 20 -22 3 -41 -17 -19 -21 -19 -47 -6 -38 20 -49 19
-76 -7 -47 -44 -20 -118 44 -118 37 0 45 17 11 22 -17 2 -24 11 -26 31 l-3 28
73 -3 73 -3 -3 -30 c-7 -66 -82 -123 -147 -111 -47 9 -92 50 -106 96 -16 53 9
120 54 150 41 27 118 23 150 -8z m-2423 -12 c0 -27 -3 -30 -30 -30 l-29 0 -3
-92 c-3 -93 -3 -93 -30 -96 l-27 -3 -3 93 -3 93 -28 3 c-30 4 -43 22 -33 47 4
12 25 15 96 15 l90 0 0 -30z m240 0 c0 -29 -2 -30 -45 -30 -33 0 -45 -4 -45
-15 0 -11 11 -15 39 -15 33 0 39 -3 43 -25 7 -32 2 -35 -44 -35 -31 0 -38 -4
-38 -19 0 -17 8 -20 48 -23 43 -3 47 -5 47 -28 0 -25 -1 -25 -80 -25 l-80 0
-3 123 -3 122 81 0 80 0 0 -30z m480 -16 l0 -45 48 3 47 3 3 43 c3 39 5 42 33
42 l29 0 0 -125 0 -125 -30 0 c-29 0 -30 1 -30 50 l0 50 -49 0 -50 0 -3 -47
c-3 -46 -4 -48 -33 -48 l-30 0 -3 109 c-2 60 -1 115 2 122 3 8 19 14 36 14 29
0 30 -2 30 -46z m370 -4 c18 -27 36 -47 41 -44 5 3 9 25 9 50 0 42 1 44 30 44
l31 0 -3 -122 -3 -123 -24 0 c-19 0 -35 14 -65 59 l-41 60 -5 -60 c-5 -58 -6
-59 -35 -59 l-30 0 -3 123 -3 122 35 0 c30 0 38 -6 66 -50z m618 -47 l3 -93
44 0 c43 0 45 -1 45 -30 l0 -31 -77 3 -78 3 -3 123 -3 123 33 -3 33 -3 3 -92z
m903 55 l21 -42 19 25 c10 13 21 32 25 42 4 12 16 17 40 17 19 0 34 -4 34 -9
0 -5 -17 -38 -37 -73 -23 -39 -39 -82 -42 -113 -6 -48 -7 -50 -36 -50 -29 0
-30 2 -36 50 -3 29 -20 78 -39 115 -19 36 -36 68 -38 73 -2 4 12 7 32 7 32 0
38 -5 57 -42z m327 -36 c3 -28 7 -32 33 -32 19 0 29 -5 29 -15 0 -10 -10 -15
-30 -15 -27 0 -30 -3 -30 -34 0 -21 -6 -36 -15 -40 -16 -6 -19 -1 -29 46 -5
20 -13 28 -33 30 -38 4 -42 28 -5 28 26 0 31 4 36 36 9 46 40 44 44 -4z
m-2280 -339 c-2 -11 -14 -19 -31 -21 -27 -3 -27 -5 -27 -73 0 -67 -1 -69 -25
-69 -24 0 -25 2 -25 69 0 68 0 69 -30 75 -18 3 -30 12 -30 21 0 12 16 15 86
15 76 0 85 -2 82 -17z m120 -18 c5 -39 15 -49 46 -41 22 5 26 12 26 41 0 28 4
35 20 35 19 0 20 -7 20 -90 0 -83 -1 -90 -20 -90 -16 0 -20 7 -20 30 0 23 -5
31 -24 36 -34 8 -46 -2 -46 -37 0 -24 -4 -29 -25 -29 -25 0 -25 1 -25 91 0 88
1 90 23 87 16 -2 23 -11 25 -33z m342 21 c0 -17 -21 -26 -59 -26 -15 0 -31 -3
-34 -7 -13 -12 15 -33 44 -33 19 0 29 -5 29 -15 0 -10 -10 -15 -34 -15 -20 0
-36 -6 -39 -14 -7 -17 13 -26 59 -26 24 0 34 -5 34 -15 0 -12 -14 -15 -70 -15
l-70 0 0 90 0 90 70 0 c53 0 70 -3 70 -14z m321 4 c10 -6 19 -17 19 -24 0 -18
-31 -29 -44 -16 -14 14 -49 13 -64 -2 -17 -17 -15 -63 2 -78 16 -13 61 -10 61
4 0 5 -8 10 -18 12 -51 7 -25 37 29 32 36 -3 39 -6 42 -35 4 -41 -27 -63 -87
-63 -62 0 -91 28 -91 87 0 60 33 93 90 93 23 0 50 -5 61 -10z m260 -16 c16
-18 24 -37 24 -64 0 -57 -35 -90 -92 -90 -56 0 -77 11 -93 49 -15 37 -6 78 22
109 32 33 106 31 139 -4z m235 -63 c19 -47 34 -86 34 -88 0 -9 -49 -1 -52 8
-2 6 -21 11 -42 11 -21 0 -43 -5 -49 -11 -6 -6 -21 -11 -33 -11 -22 0 -22 1
14 90 35 88 37 91 65 88 26 -3 32 -11 63 -87z m232 72 c-2 -11 -14 -19 -31
-21 -27 -3 -27 -5 -27 -73 0 -67 -1 -69 -25 -69 -24 0 -25 2 -25 69 0 68 0 69
-30 75 -18 3 -30 12 -30 21 0 12 16 15 86 15 76 0 85 -2 82 -17z"/>
<path d="M680 1226 c-6 -19 -17 -37 -25 -40 -8 -3 -15 -10 -15 -15 0 -5 12 -3
28 5 61 32 155 9 184 -44 17 -33 18 -234 0 -240 -9 -3 -12 24 -12 108 0 104
-1 112 -25 135 -36 37 -102 35 -139 -4 -24 -25 -27 -36 -26 -87 2 -82 2 -84
-17 -84 -14 0 -15 11 -10 94 l6 93 -40 13 c-24 8 -43 10 -48 4 -14 -15 -44
-201 -37 -230 5 -18 3 -24 -5 -19 -20 13 7 -28 38 -56 37 -35 78 -55 131 -64
23 -4 42 -9 42 -12 0 -3 -11 -19 -26 -35 -33 -40 -71 -115 -79 -159 -5 -26 -2
-40 12 -57 18 -21 311 -178 318 -170 3 2 21 128 40 279 l36 274 32 28 c18 15
43 30 57 33 67 14 67 18 -1 57 -35 21 -71 42 -79 47 -41 25 -320 180 -325 180
-2 0 -9 -15 -15 -34z"/>
<path d="M451 765 c-7 -33 -17 -78 -21 -100 -5 -22 -8 -40 -7 -41 1 -1 30 -15
63 -32 l62 -31 -34 67 c-21 42 -37 91 -42 132 l-8 65 -13 -60z"/>
<path d="M3300 990 c-12 -12 -20 -33 -20 -53 0 -84 110 -93 126 -10 5 26 1 37
-19 57 -31 31 -60 33 -87 6z"/>
<path d="M3882 987 c-45 -48 -18 -117 46 -117 60 0 85 81 36 119 -34 27 -55
26 -82 -2z"/>
<path d="M3516 604 c-19 -18 -20 -38 -6 -65 13 -23 53 -25 74 -3 20 19 20 34
0 62 -18 26 -46 28 -68 6z"/>
<path d="M3781 572 c-10 -18 -9 -23 4 -28 23 -9 30 2 18 28 l-10 23 -12 -23z"/>
</g>
</svg>
